<svg xmlns="http://www.w3.org/2000/svg" viewBox="0 0 1200 630" width="1200" height="630">
  <defs>
    <linearGradient id="bg" x1="0" y1="0" x2="1" y2="1">
      <stop offset="0" stop-color="#0d1b2a"/>
      <stop offset="1" stop-color="#15293f"/>
    </linearGradient>
    <radialGradient id="glow" cx="78%" cy="34%" r="46%">
      <stop offset="0" stop-color="#00c8b4" stop-opacity="0.22"/>
      <stop offset="1" stop-color="#00c8b4" stop-opacity="0"/>
    </radialGradient>
    <linearGradient id="glass" x1="0" y1="0" x2="1" y2="0">
      <stop offset="0" stop-color="#c4d2de"/><stop offset=".14" stop-color="#ffffff"/>
      <stop offset=".5" stop-color="#dde7ef"/><stop offset=".86" stop-color="#ffffff"/>
      <stop offset="1" stop-color="#bcccd9"/>
    </linearGradient>
    <linearGradient id="cap" x1="0" y1="0" x2="1" y2="0">
      <stop offset="0" stop-color="#c9d4e0"/><stop offset=".25" stop-color="#eef3f8"/>
      <stop offset=".55" stop-color="#c9d4e0"/><stop offset=".8" stop-color="#eef3f8"/>
      <stop offset="1" stop-color="#c9d4e0"/>
    </linearGradient>
  </defs>
  <rect width="1200" height="630" fill="url(#bg)"/>
  <rect width="1200" height="630" fill="url(#glow)"/>
  <rect x="0" y="0" width="1200" height="8" fill="#00c8b4"/>

  <!-- Brand mark -->
  <g transform="translate(96,150)">
    <rect width="92" height="92" rx="22" fill="#0a1622" stroke="#00c8b4" stroke-width="2"/>
    <circle cx="46" cy="46" r="26" fill="none" stroke="#00c8b4" stroke-width="3"/>
    <circle cx="46" cy="46" r="13" fill="#0077b6"/>
    <path d="M32 46 Q46 28 60 46 Q46 64 32 46Z" fill="#00c8b4" opacity=".7"/>
    <text x="46" y="54" text-anchor="middle" font-family="Georgia,serif" font-size="18" font-weight="bold" fill="#ffffff">PP</text>
  </g>

  <!-- Wordmark -->
  <text x="212" y="212" font-family="Georgia,serif" font-size="64" font-weight="bold" fill="#ffffff">Pure<tspan fill="#00c8b4">Peptides</tspan></text>
  <text x="214" y="248" font-family="Arial,Helvetica,sans-serif" font-size="20" letter-spacing="4" fill="#6b8298">RESEARCH GRADE &#183; EST. 2012</text>

  <!-- Headline -->
  <text x="96" y="372" font-family="Georgia,serif" font-size="78" font-weight="bold" fill="#ffffff">Research-Grade Peptides</text>
  <text x="96" y="446" font-family="Arial,Helvetica,sans-serif" font-size="34" fill="#aebccb">&#62;99% purity &#183; lyophilised &#183; tracked UK &amp; EU delivery</text>

  <!-- Trust chips -->
  <g font-family="Arial,Helvetica,sans-serif" font-size="22" font-weight="bold">
    <rect x="96" y="500" width="232" height="56" rx="10" fill="rgba(0,200,180,0.12)" stroke="#00c8b4" stroke-width="1.5"/>
    <text x="212" y="536" text-anchor="middle" fill="#00c8b4">&#62;99% PURITY</text>
    <rect x="348" y="500" width="270" height="56" rx="10" fill="rgba(0,119,182,0.16)" stroke="#2e9cdb" stroke-width="1.5"/>
    <text x="483" y="536" text-anchor="middle" fill="#9fd0ee">SAME-DAY DISPATCH</text>
    <rect x="638" y="500" width="300" height="56" rx="10" fill="rgba(255,255,255,0.06)" stroke="#3a4a5c" stroke-width="1.5"/>
    <text x="788" y="536" text-anchor="middle" fill="#aebccb">RESEARCH USE ONLY</text>
  </g>

  <!-- Vial illustration (right) -->
  <g transform="translate(980,150)">
    <ellipse cx="60" cy="338" rx="64" ry="14" fill="#000000" opacity=".25"/>
    <path d="M22 70 q0 -6 6 -6 h64 q6 0 6 6 v210 q0 20 -20 20 h-36 q-20 0 -20 -20 z" fill="url(#glass)" stroke="#b3c3d1" stroke-width="1.5"/>
    <path d="M28 250 q32 -12 64 0 v22 q-32 10 -64 0 z" fill="#ffffff"/>
    <rect x="34" y="40" width="52" height="30" rx="4" fill="#2b2f36"/>
    <rect x="30" y="20" width="60" height="28" rx="6" fill="url(#cap)" stroke="#9aa7b4" stroke-width=".8"/>
    <ellipse cx="60" cy="20" rx="18" ry="5" fill="#0077b6"/>
    <g>
      <rect x="20" y="150" width="80" height="92" rx="5" fill="#ffffff" opacity=".96"/>
      <rect x="20" y="150" width="80" height="22" rx="5" fill="#0d1b2a"/>
      <text x="60" y="165" text-anchor="middle" font-family="Georgia,serif" font-size="10" font-weight="bold" fill="#ffffff">Pure<tspan fill="#00c8b4">Peptides</tspan></text>
      <text x="28" y="192" font-family="Arial,sans-serif" font-size="9" font-weight="bold" fill="#0d1b2a">RESEARCH</text>
      <text x="28" y="206" font-family="Arial,sans-serif" font-size="13" font-weight="bold" fill="#0077b6">&#62;99%</text>
      <text x="28" y="228" font-family="monospace" font-size="6.5" fill="#6b7e96">RESEARCH USE ONLY</text>
    </g>
  </g>
</svg>
